<svg width="24" height="24" viewBox="0 0 24 24" fill="none" xmlns="http://www.w3.org/2000/svg">
  <path d="M12 6V9" stroke="currentColor" stroke-width="1.5" stroke-linecap="round" stroke-linejoin="round"/>
  <path d="M12 18.5C14.2091 18.5 16 16.7091 16 14.5V9.5C16 7.29086 14.2091 5.5 12 5.5C9.79086 5.5 8 7.29086 8 9.5V14.5C8 16.7091 9.79086 18.5 12 18.5Z" stroke="currentColor" stroke-width="1.5" stroke-linecap="round" stroke-linejoin="round"/>
  <path d="M7 9C7 6.23858 9.23858 4 12 4C14.7614 4 17 6.23858 17 9" stroke="currentColor" stroke-width="1.5" stroke-linecap="round" stroke-linejoin="round"/>
  <path d="M10 18.5V19.5C10 20.6046 10.8954 21.5 12 21.5C13.1046 21.5 14 20.6046 14 19.5V18.5" stroke="currentColor" stroke-width="1.5" stroke-linecap="round" stroke-linejoin="round"/>
  <path d="M19 10L20 9" stroke="currentColor" stroke-width="1.5" stroke-linecap="round" stroke-linejoin="round"/>
  <path d="M19 14L20 15" stroke="currentColor" stroke-width="1.5" stroke-linecap="round" stroke-linejoin="round"/>
  <path d="M5 10L4 9" stroke="currentColor" stroke-width="1.5" stroke-linecap="round" stroke-linejoin="round"/>
  <path d="M5 14L4 15" stroke="currentColor" stroke-width="1.5" stroke-linecap="round" stroke-linejoin="round"/>
</svg>
