<svg width="48" height="48" viewBox="0 0 48 48" fill="none" xmlns="http://www.w3.org/2000/svg">
<g clip-path="url(#clip0_1209_6824)">
<path d="M11.544 40.2985H36.4606C37.4773 40.2985 38.4523 40.7024 39.1712 41.4213C39.8901 42.1402 40.294 43.1152 40.294 44.1319V45.0902C40.294 45.216 40.2692 45.3407 40.221 45.4569C40.1729 45.5732 40.1023 45.6788 40.0133 45.7678C39.9243 45.8568 39.8186 45.9274 39.7024 45.9756C39.5861 46.0237 39.4615 46.0485 39.3356 46.0485H8.66897C8.54312 46.0485 8.4185 46.0237 8.30223 45.9756C8.18596 45.9274 8.08031 45.8568 7.99132 45.7678C7.90233 45.6788 7.83174 45.5732 7.78358 45.4569C7.73542 45.3407 7.71063 45.216 7.71063 45.0902V44.1319C7.71063 43.1152 8.1145 42.1402 8.83339 41.4213C9.55228 40.7024 10.5273 40.2985 11.544 40.2985Z" stroke="black" stroke-width="2" stroke-linecap="round" stroke-linejoin="round"/>
<path d="M41.2523 23.0485H46.044" stroke="black" stroke-width="2" stroke-linecap="round" stroke-linejoin="round"/>
<path d="M37.419 11.5485L41.2523 7.71515" stroke="black" stroke-width="2" stroke-linecap="round" stroke-linejoin="round"/>
<path d="M6.7523 22.0901H1.96063" stroke="black" stroke-width="2" stroke-linecap="round" stroke-linejoin="round"/>
<path d="M10.5857 11.5485L6.75232 7.71515" stroke="black" stroke-width="2" stroke-linecap="round" stroke-linejoin="round"/>
<path d="M24.0023 7.71515V1.96515" stroke="black" stroke-width="2" stroke-linecap="round" stroke-linejoin="round"/>
<path d="M30.7107 25.9235C30.7107 25.6693 30.6097 25.4256 30.43 25.2459C30.2503 25.0661 30.0065 24.9652 29.7523 24.9652H26.8773V22.0902C26.8773 21.836 26.7764 21.5922 26.5967 21.4125C26.4169 21.2328 26.1732 21.1318 25.919 21.1318H22.0857C21.8315 21.1318 21.5878 21.2328 21.408 21.4125C21.2283 21.5922 21.1273 21.836 21.1273 22.0902V24.9652H18.2523C17.9982 24.9652 17.7544 25.0661 17.5747 25.2459C17.395 25.4256 17.294 25.6693 17.294 25.9235V29.7568C17.294 30.011 17.395 30.2548 17.5747 30.4345C17.7544 30.6142 17.9982 30.7152 18.2523 30.7152H21.1273V33.5902C21.1273 33.8443 21.2283 34.0881 21.408 34.2678C21.5878 34.4475 21.8315 34.5485 22.0857 34.5485H25.919C26.1732 34.5485 26.4169 34.4475 26.5967 34.2678C26.7764 34.0881 26.8773 33.8443 26.8773 33.5902V30.7152H29.7523C30.0065 30.7152 30.2503 30.6142 30.43 30.4345C30.6097 30.2548 30.7107 30.011 30.7107 29.7568V25.9235Z" stroke="black" stroke-width="2" stroke-linecap="round" stroke-linejoin="round"/>
<path d="M36.4607 40.2985H11.544V25.9235C11.544 22.6193 12.8566 19.4505 15.193 17.1141C17.5294 14.7777 20.6982 13.4651 24.0023 13.4651C27.3065 13.4651 30.4753 14.7777 32.8117 17.1141C35.1481 19.4505 36.4607 22.6193 36.4607 25.9235V40.2985Z" stroke="black" stroke-width="2" stroke-linecap="round" stroke-linejoin="round"/>
</g>
<defs>
<clipPath id="clip0_1209_6824">
<rect width="48" height="48" fill="white" transform="translate(0.00231934 0.00683594)"/>
</clipPath>
</defs>
</svg>
